<svg width="1920" height="2160" viewBox="0 0 1920 2160" fill="none" xmlns="http://www.w3.org/2000/svg">
    <g clip-path="url(#clip0_7_4)">
    <rect width="1920" height="2160" fill="white"/>
    <rect width="1920" height="2160" fill="url(#paint0_radial_7_4)"/>
    <path d="M366 1016C366 1154.07 254.071 1266 116 1266C-22.0712 1266 -134 1154.07 -134 1016C-134 877.929 -22.0712 766 116 766C254.071 766 366 877.929 366 1016Z" fill="#7FE9DE"/>
    <path d="M770 1810C770 2003.3 613.3 2160 420 2160C226.7 2160 70 2003.3 70 1810C70 1616.7 226.7 1460 420 1460C613.3 1460 770 1616.7 770 1810Z" fill="#7FE9DE"/>
    <path d="M542 644.5C542 711.603 487.603 766 420.5 766C353.397 766 299 711.603 299 644.5C299 577.397 353.397 523 420.5 523C487.603 523 542 577.397 542 644.5Z" fill="#7FE9DE"/>
    <path d="M738 899.5C738 924.629 717.629 945 692.5 945C667.371 945 647 924.629 647 899.5C647 874.371 667.371 854 692.5 854C717.629 854 738 874.371 738 899.5Z" fill="#7FE9DE"/>
    <path d="M628 1311.5C628 1336.63 607.629 1357 582.5 1357C557.371 1357 537 1336.63 537 1311.5C537 1286.37 557.371 1266 582.5 1266C607.629 1266 628 1286.37 628 1311.5Z" fill="#7FE9DE"/>
    <path d="M2135 744C2135 882.071 2023.07 994 1885 994C1746.93 994 1635 882.071 1635 744C1635 605.929 1746.93 494 1885 494C2023.07 494 2135 605.929 2135 744Z" fill="#FFF6BF"/>
    <path d="M1669 1710C1669 1788.98 1604.98 1853 1526 1853C1447.02 1853 1383 1788.98 1383 1710C1383 1631.02 1447.02 1567 1526 1567C1604.98 1567 1669 1631.02 1669 1710Z" fill="#FFF6BF"/>
    <path d="M1713 1200C1713 1365.69 1578.69 1500 1413 1500C1247.31 1500 1113 1365.69 1113 1200C1113 1034.31 1247.31 900 1413 900C1578.69 900 1713 1034.31 1713 1200Z" fill="#FFF6BF"/>
    <path d="M2014 156.5C2014 228.573 1955.57 287 1883.5 287C1811.43 287 1753 228.573 1753 156.5C1753 84.4268 1811.43 26 1883.5 26C1955.57 26 2014 84.4268 2014 156.5Z" fill="#FFF6BF"/>
    </g>
    <defs>
    <radialGradient id="paint0_radial_7_4" cx="0" cy="0" r="1" gradientUnits="userSpaceOnUse" gradientTransform="translate(960 1080) rotate(90) scale(1080 960)">
    <stop stop-color="#B5FBFF"/>
    <stop offset="1" stop-color="#A5F1E9"/>
    </radialGradient>
    <clipPath id="clip0_7_4">
    <rect width="1920" height="2160" fill="white"/>
    </clipPath>
    </defs>
</svg>    