<svg width="1920" height="3440" viewBox="0 0 1920 3440" fill="none" xmlns="http://www.w3.org/2000/svg">
    <rect x="0.885849" width="1932.69" height="2160" fill="url(#paint0_radial_0_1)"/>
    <path d="M369.305 1016C369.305 1154.07 256.637 1266 117.653 1266C-21.3312 1266 -134 1154.07 -134 1016C-134 877.929 -21.3312 766 117.653 766C256.637 766 369.305 877.929 369.305 1016Z" fill="#7FE9DE"/>
    <path d="M775.976 1810C775.976 2003.3 618.24 2160 423.662 2160C229.085 2160 71.3486 2003.3 71.3486 1810C71.3486 1616.7 229.085 1460 423.662 1460C618.24 1460 775.976 1616.7 775.976 1810Z" fill="#7FE9DE"/>
    <path d="M546.469 644.5C546.469 711.603 491.712 766 424.166 766C356.62 766 301.862 711.603 301.862 644.5C301.862 577.397 356.62 523 424.166 523C491.712 523 546.469 577.397 546.469 644.5Z" fill="#7FE9DE"/>
    <path d="M743.765 899.5C743.765 924.629 723.259 945 697.964 945C672.669 945 652.163 924.629 652.163 899.5C652.163 874.371 672.669 854 697.964 854C723.259 854 743.765 874.371 743.765 899.5Z" fill="#7FE9DE"/>
    <path d="M633.037 1311.5C633.037 1336.63 612.532 1357 587.237 1357C561.942 1357 541.436 1336.63 541.436 1311.5C541.436 1286.37 561.942 1266 587.237 1266C612.532 1266 633.037 1286.37 633.037 1311.5Z" fill="#7FE9DE"/>
    <path d="M2150 744C2150 882.071 2037.33 994 1898.35 994C1759.36 994 1646.69 882.071 1646.69 744C1646.69 605.929 1759.36 494 1898.35 494C2037.33 494 2150 605.929 2150 744Z" fill="#FFF6BF"/>
    <path d="M1680.92 1710C1680.92 1788.98 1616.47 1853 1536.97 1853C1457.48 1853 1393.03 1788.98 1393.03 1710C1393.03 1631.02 1457.48 1567 1536.97 1567C1616.47 1567 1680.92 1631.02 1680.92 1710Z" fill="#FFF6BF"/>
    <path d="M1725.21 1200C1725.21 1365.69 1590.01 1500 1423.23 1500C1256.45 1500 1121.24 1365.69 1121.24 1200C1121.24 1034.31 1256.45 900 1423.23 900C1590.01 900 1725.21 1034.31 1725.21 1200Z" fill="#FFF6BF"/>
    <path d="M2028.2 156.5C2028.2 228.573 1969.39 287 1896.84 287C1824.29 287 1765.47 228.573 1765.47 156.5C1765.47 84.4268 1824.29 26 1896.84 26C1969.39 26 2028.2 84.4268 2028.2 156.5Z" fill="#FFF6BF"/>
    <rect y="2159" width="1920" height="2160" fill="url(#paint1_radial_0_1)"/>
    <path d="M366 3175C366 3313.07 254.071 3425 116 3425C-22.0712 3425 -134 3313.07 -134 3175C-134 3036.93 -22.0712 2925 116 2925C254.071 2925 366 3036.93 366 3175Z" fill="#7FE9DE"/>
    <path d="M542 2803.5C542 2870.6 487.603 2925 420.5 2925C353.397 2925 299 2870.6 299 2803.5C299 2736.4 353.397 2682 420.5 2682C487.603 2682 542 2736.4 542 2803.5Z" fill="#7FE9DE"/>
    <path d="M738 3058.5C738 3083.63 717.629 3104 692.5 3104C667.371 3104 647 3083.63 647 3058.5C647 3033.37 667.371 3013 692.5 3013C717.629 3013 738 3033.37 738 3058.5Z" fill="#7FE9DE"/>
    <path d="M628 3470.5C628 3495.63 607.629 3516 582.5 3516C557.371 3516 537 3495.63 537 3470.5C537 3445.37 557.371 3425 582.5 3425C607.629 3425 628 3445.37 628 3470.5Z" fill="#7FE9DE"/>
    <path d="M2135 2903C2135 3041.07 2023.07 3153 1885 3153C1746.93 3153 1635 3041.07 1635 2903C1635 2764.93 1746.93 2653 1885 2653C2023.07 2653 2135 2764.93 2135 2903Z" fill="#FFF6BF"/>
    <path d="M1713 3359C1713 3524.69 1578.69 3659 1413 3659C1247.31 3659 1113 3524.69 1113 3359C1113 3193.31 1247.31 3059 1413 3059C1578.69 3059 1713 3193.31 1713 3359Z" fill="#FFF6BF"/>
    <path d="M2014 2315.5C2014 2387.57 1955.57 2446 1883.5 2446C1811.43 2446 1753 2387.57 1753 2315.5C1753 2243.43 1811.43 2185 1883.5 2185C1955.57 2185 2014 2243.43 2014 2315.5Z" fill="#FFF6BF"/>
    <defs>
    <radialGradient id="paint0_radial_0_1" cx="0" cy="0" r="1" gradientUnits="userSpaceOnUse" gradientTransform="translate(967.232 1080) rotate(90) scale(1080 966.346)">
    <stop stop-color="#B5FBFF"/>
    <stop offset="1" stop-color="#A5F1E9"/>
    </radialGradient>
    <radialGradient id="paint1_radial_0_1" cx="0" cy="0" r="1" gradientUnits="userSpaceOnUse" gradientTransform="translate(960 3239) rotate(90) scale(1080 960)">
    <stop stop-color="#B5FBFF"/>
    <stop offset="1" stop-color="#A5F1E9"/>
    </radialGradient>
    </defs>
    </svg>
    